<svg id="visual" viewBox="0 0 960 540" width="960" height="540" xmlns="http://www.w3.org/2000/svg" xmlns:xlink="http://www.w3.org/1999/xlink" version="1.1"><rect x="0" y="0" width="960" height="540" fill="#F8F9FA"></rect><defs><linearGradient id="grad1_0" x1="43.8%" y1="100%" x2="100%" y2="0%"><stop offset="14.444444444444446%" stop-color="#f8f9fa" stop-opacity="1"></stop><stop offset="85.55555555555554%" stop-color="#f8f9fa" stop-opacity="1"></stop></linearGradient></defs><defs><linearGradient id="grad2_0" x1="0%" y1="100%" x2="56.3%" y2="0%"><stop offset="14.444444444444446%" stop-color="#f8f9fa" stop-opacity="1"></stop><stop offset="85.55555555555554%" stop-color="#f8f9fa" stop-opacity="1"></stop></linearGradient></defs><g transform="translate(960, 540)"><path d="M-270 0C-248.9 -29.1 -227.9 -58.2 -215.3 -89.2C-202.6 -120.1 -198.5 -152.9 -181.7 -181.7C-165 -210.5 -135.7 -235.4 -103.3 -249.4C-70.9 -263.5 -35.5 -266.7 0 -270L0 0Z" fill="#FCA311"></path></g><g transform="translate(0, 0)"><path d="M270 0C263 33.2 256 66.5 244.8 101.4C233.7 136.4 218.3 173 190.9 190.9C163.5 208.8 124.1 208 90.3 218C56.5 228.1 28.2 249 0 270L0 0Z" fill="#FCA311"></path></g></svg>